<?xml version="1.0" encoding="UTF-8"?>
<svg version="1.1" xmlns="http://www.w3.org/2000/svg" width="720" height="720">
<path d="M0 0 C3 1 3 1 4 3 C6.05405806 4.09826804 8.14488555 5.12808457 10.25 6.125 C15.23104356 8.52268947 19.90717984 11.12376795 24.5625 14.125 C29.88557976 17.4999759 35.15693197 19.79757221 41.125 21.796875 C44 23 44 23 46.44921875 24.96875 C49.42808349 27.34089344 52.242386 28.45177673 55.8125 29.75 C57.55466797 30.39195312 57.55466797 30.39195312 59.33203125 31.046875 C60.65267578 31.51867187 60.65267578 31.51867187 62 32 C62 32.66 62 33.32 62 34 C63.5778125 34.3403125 63.5778125 34.3403125 65.1875 34.6875 C71.32745457 36.21430931 77.12657733 38.67999805 83 41 C84.49841515 41.56670829 85.99813798 42.12999061 87.5 42.6875 C89.43459062 43.41297148 91.36456034 44.15310279 93.26953125 44.953125 C96.52224996 46.20023317 99.83650221 47.12585308 103.1875 48.0625 C110.96677013 50.27817559 118.56568501 52.9222442 126.1875 55.625 C134.04943495 58.39755559 141.66998479 60.89743297 149.87890625 62.39453125 C153.36404653 63.07062229 156.71311934 64.02049531 160.125 65 C167.08667995 66.92323721 174.0436507 68.01242672 181.21142578 68.87304688 C186.71421274 69.58732462 190.63775152 70.53087818 194.60708618 74.67979431 C196.49702327 77.82790206 196.3810068 80.12130115 196.38818359 83.78344727 C196.39606903 84.79726974 196.39606903 84.79726974 196.40411377 85.83157349 C196.4173488 88.07675135 196.40853346 90.32122039 196.3984375 92.56640625 C196.40046443 94.15836215 196.40338098 95.75031713 196.40713501 97.3422699 C196.41156894 100.70247109 196.40511958 104.06243395 196.39111328 107.42260742 C196.3744442 111.61527882 196.38385884 115.80736102 196.40145493 120.00000954 C196.60032072 176.19903785 196.60032072 176.19903785 192 190 C191.75047877 191.92174181 191.53969378 193.84862421 191.3515625 195.77734375 C191.17367187 197.50887695 191.17367187 197.50887695 190.9921875 199.27539062 C190.75096313 201.68121876 190.51385577 204.08746392 190.28125 206.49414062 C189.47795259 214.22374178 188.09602633 221.51997187 186 229 C185.77634766 229.81766846 185.55269531 230.63533691 185.32226562 231.4777832 C184.50079415 234.45561731 183.65491989 237.42619382 182.80664062 240.39648438 C181.5403471 244.88607051 180.43127694 249.38111319 179.46166992 253.94433594 C178.77421643 257.00533983 177.89543751 259.99388836 177 263 C176.01 263 175.02 263 174 263 C173.855625 264.051875 173.71125 265.10375 173.5625 266.1875 C173.12473034 269.15460549 172.62195134 272.06794366 172 275 C171.34 275 170.68 275 170 275 C169.896875 276.051875 169.79375 277.10375 169.6875 278.1875 C168.99610548 282.02159688 168.01016243 283.75281454 166 287 C165.49355773 288.47005134 165.01679068 289.95050481 164.5625 291.4375 C163.28446683 295.48572024 161.43231812 298.5035427 159 302 C158.285526 303.6979023 157.57147204 305.39598523 156.86132812 307.09570312 C155.41943307 310.28356634 153.58618425 313.21470512 151.75 316.1875 C150.95259054 317.49837295 150.15572305 318.80957573 149.359375 320.12109375 C148.96427734 320.76933105 148.56917969 321.41756836 148.16210938 322.08544922 C146.41736869 324.95987284 144.70456787 327.85153026 143 330.75 C142.443125 331.69359375 141.88625 332.6371875 141.3125 333.609375 C139.8900916 336.03078568 139.8900916 336.03078568 139 339 C138.42378906 339.5671875 137.84757812 340.134375 137.25390625 340.71875 C134.31837437 343.68989491 132.20111693 347.00445961 129.9375 350.5 C123.76452235 359.94749922 123.76452235 359.94749922 122 362 C121.34 362 120.68 362 120 362 C119.75636719 362.71542969 119.51273437 363.43085938 119.26171875 364.16796875 C117.83333558 367.37409196 116.06949334 369.62819294 113.8125 372.3125 C113.01070313 373.27027344 112.20890625 374.22804688 111.3828125 375.21484375 C108.78011709 378.25701068 106.15984447 381.28111247 103.5 384.2734375 C102.1724645 385.80148617 100.92327457 387.39683299 99.6875 389 C99.130625 389.66 98.57375 390.32 98 391 C97.34 391 96.68 391 96 391 C96 391.66 96 392.32 96 393 C95.34 393 94.68 393 94 393 C93.77957031 393.53753906 93.55914062 394.07507813 93.33203125 394.62890625 C91.54948697 397.80193962 89.1640849 400.30304514 86.6875 402.9375 C86.21376953 403.44990234 85.74003906 403.96230469 85.25195312 404.49023438 C83.84563018 406.00429205 82.42524777 407.5037648 81 409 C80.16082031 409.88816406 79.32164062 410.77632812 78.45703125 411.69140625 C76.08099773 413.92389562 73.80182634 415.36486476 71 417 C69.42588429 418.33772973 67.88535212 419.71567478 66.375 421.125 C61.86863974 425.25470926 57.2234373 429.15628308 52.46875 432.99609375 C50.52953818 434.57016916 48.63401189 436.17401094 46.75 437.8125 C42.23824102 441.40139919 37.43410852 444.02396054 32 446 C32 446.66 32 447.32 32 448 C31.38511719 448.32613281 30.77023437 448.65226562 30.13671875 448.98828125 C29.32847656 449.42527344 28.52023437 449.86226562 27.6875 450.3125 C26.48673828 450.95638672 26.48673828 450.95638672 25.26171875 451.61328125 C23.13053663 452.91996459 21.74366645 454.2383576 20 456 C18.38468123 457.10834059 16.73563039 458.16852585 15.0625 459.1875 C14.20785156 459.71730469 13.35320312 460.24710938 12.47265625 460.79296875 C10 462 10 462 6 462 C6 462.66 6 463.32 6 464 C-2.28995689 468.33338656 -2.28995689 468.33338656 -6.32421875 467.546875 C-7.10410156 467.28390625 -7.88398438 467.0209375 -8.6875 466.75 C-9.47511719 466.49734375 -10.26273438 466.2446875 -11.07421875 465.984375 C-13 465 -13 465 -14 462 C-14.66 461.9175 -15.32 461.835 -16 461.75 C-23.55711266 459.86072183 -30.5298555 455.4701445 -36 450 C-37.41309803 449.07984314 -38.82682425 448.160609 -40.24609375 447.25 C-43.123073 445.19959162 -45.67176728 442.78340847 -48.265625 440.390625 C-49.88955467 438.79148272 -49.88955467 438.79148272 -52 439 C-52 438.34 -52 437.68 -52 437 C-52.69867188 436.77441406 -53.39734375 436.54882812 -54.1171875 436.31640625 C-57.62669491 434.71382631 -60.26289672 432.46635944 -63.125 429.9375 C-64.27129876 428.94304519 -65.41844908 427.94957119 -66.56640625 426.95703125 C-67.42516357 426.21187256 -67.42516357 426.21187256 -68.30126953 425.45166016 C-71.6787195 422.56544033 -75.17605928 419.82615461 -78.66015625 417.0703125 C-81.11141905 414.90141553 -82.98222495 412.56957475 -85 410 C-86.15616475 408.92365955 -87.3440492 407.8802877 -88.5625 406.875 C-94.01228721 402.22424175 -98.97454374 397.09852429 -104 392 C-104.60199219 391.43796875 -105.20398438 390.8759375 -105.82421875 390.296875 C-107 389 -107 389 -107 387 C-107.57363281 386.773125 -108.14726562 386.54625 -108.73828125 386.3125 C-111.62523053 384.63717192 -113.136586 382.62995166 -115.1875 380 C-118.98025006 375.22928463 -122.93076983 370.67746005 -127.0546875 366.19140625 C-132 360.62048193 -132 360.62048193 -132 358 C-132.66 358 -133.32 358 -134 358 C-135.38009888 356.11005567 -136.68019207 354.16126272 -137.9375 352.1875 C-140.10900267 348.79021451 -142.12267671 345.80676223 -145 343 C-147.48235814 339.43161018 -149.71659022 335.69812037 -152 332 C-152.42941895 331.30793457 -152.85883789 330.61586914 -153.30126953 329.90283203 C-158.77782628 321.06762825 -164.23201688 312.24352994 -169 303 C-169.47348877 302.08371826 -169.47348877 302.08371826 -169.95654297 301.14892578 C-178.76204862 284.03836829 -185.22481489 266.50659376 -189.94140625 247.8359375 C-190.68015343 245.15900121 -191.45879184 242.63713931 -192.40234375 240.0390625 C-197.445411 225.91263281 -199.25494678 211.46104253 -201.19570923 196.65734863 C-201.67977717 193.04167316 -202.28656713 189.5068699 -203.10546875 185.953125 C-204.54455771 179.16915409 -204.43153609 172.21942269 -204.5625 165.3125 C-204.60681406 163.24039412 -204.65375105 161.16842 -204.70530701 159.09648132 C-204.75116827 157.22501055 -204.78904574 155.35334903 -204.82641602 153.48168945 C-204.9336235 150.04835227 -204.9336235 150.04835227 -205.50268555 146.88500977 C-206.23432081 141.16949086 -206.18317257 135.48331213 -206.203125 129.7265625 C-206.20882507 128.44824554 -206.21452515 127.16992859 -206.22039795 125.85287476 C-206.23085607 123.1548422 -206.23673294 120.45683899 -206.24023438 117.75878906 C-206.24571683 114.32382955 -206.26976111 110.8892668 -206.29820633 107.45443153 C-206.32144909 104.14931713 -206.32328901 100.84425428 -206.328125 97.5390625 C-206.3404718 96.31692047 -206.3528186 95.09477844 -206.36553955 93.83560181 C-206.34441813 85.68606445 -205.66399604 78.85364312 -200.953125 72.0390625 C-196.73189628 69.12440457 -192.77909078 68.85463278 -187.75 68.375 C-181.58432039 67.7241294 -176.01407265 66.84760868 -170.17089844 64.74023438 C-166.6019958 63.52330761 -162.9386475 62.81895854 -159.25 62.0625 C-152.92432065 60.70833941 -146.77776921 59.12363662 -140.6171875 57.1328125 C-137.71420472 56.22367103 -134.81183712 55.37310713 -131.8828125 54.5546875 C-130.506698 54.16966064 -130.506698 54.16966064 -129.1027832 53.77685547 C-127.29778536 53.27431779 -125.4916953 52.77567976 -123.68432617 52.28173828 C-118.46033722 50.82035081 -113.46830824 49.07480748 -108.45336914 47.00830078 C-104.52392159 45.39335219 -100.54601317 43.91299723 -96.5625 42.4375 C-95.73266602 42.12941406 -94.90283203 41.82132813 -94.04785156 41.50390625 C-89.81493061 39.95442873 -85.63718515 38.55897573 -81.25 37.5 C-75.96450777 36.18688552 -71.245369 33.92654552 -66.38769531 31.51171875 C-62.29672978 29.4982484 -58.39292248 28.13202233 -54 27 C-54 26.34 -54 25.68 -54 25 C-53.35933594 24.75765625 -52.71867188 24.5153125 -52.05859375 24.265625 C-45.6488457 21.78196704 -39.91249855 18.8291433 -34.1015625 15.1796875 C-17.58474864 4.86158288 -17.58474864 4.86158288 -9 2 C-9 1.34 -9 0.68 -9 0 C-5.90998791 -1.54500605 -3.32822635 -0.58389936 0 0 Z M-10.3125 16.4375 C-11.19550781 16.91058594 -12.07851563 17.38367188 -12.98828125 17.87109375 C-13.65214844 18.24363281 -14.31601562 18.61617187 -15 19 C-15 19.66 -15 20.32 -15 21 C-15.70125 21.268125 -16.4025 21.53625 -17.125 21.8125 C-22.9681072 23.82906646 -22.9681072 23.82906646 -27 28 C-27.845625 28.268125 -28.69125 28.53625 -29.5625 28.8125 C-32.45237675 29.81082106 -34.26095748 30.72405293 -36.75 32.375 C-40.47280114 34.79093546 -44.23216478 36.39923134 -48.37109375 37.97265625 C-51.08947988 39.03496762 -53.72559681 40.21381881 -56.375 41.4375 C-65.67192655 45.69642725 -75.05987915 49.4305496 -84.72119141 52.76708984 C-88.89094631 54.21788501 -92.95337512 55.78932234 -97 57.5625 C-104.43454342 60.76059968 -112.21712763 62.832968 -120 65 C-120 65.66 -120 66.32 -120 67 C-121.051875 67.0825 -122.10375 67.165 -123.1875 67.25 C-128.58259888 67.90983224 -138.08279598 69.08279598 -142 73 C-144.56040618 73.47236636 -147.11695746 73.90299629 -149.6875 74.3125 C-156.51452656 75.44723153 -163.0078292 77.07900413 -169.63671875 79.08984375 C-174.10322322 80.29854937 -178.57314362 80.94094335 -183.16015625 81.5078125 C-186.01013276 82.00175616 -188.34057856 82.8901605 -191 84 C-191.04704061 93.05169092 -191.0822233 102.10333765 -191.10362434 111.15512562 C-191.11391312 115.36151867 -191.12778656 119.56782613 -191.15087891 123.77416992 C-191.25869787 143.95654254 -190.94311727 163.88961194 -189 184 C-188.91623108 184.94912262 -188.83246216 185.89824524 -188.74615479 186.87612915 C-188.62261627 188.2287233 -188.62261627 188.2287233 -188.49658203 189.60864258 C-188.424888 190.40764481 -188.35319397 191.20664703 -188.27932739 192.02986145 C-188.09599873 194.07235973 -188.09599873 194.07235973 -187 196 C-186.86621193 197.83140999 -186.76857007 199.66550022 -186.6875 201.5 C-186.12807949 209.5183606 -184.3829143 217.13210749 -182.50097656 224.92285156 C-182.05894405 226.75560626 -181.63364396 228.5923792 -181.2109375 230.4296875 C-179.88582086 236.03595021 -178.21805144 241.35779604 -176.16796875 246.73828125 C-175.22511259 249.3713411 -174.36818446 251.99501225 -173.55078125 254.66796875 C-173.29466064 255.50384521 -173.03854004 256.33972168 -172.7746582 257.20092773 C-172.27013522 258.86109934 -171.77223044 260.52330127 -171.28198242 262.18774414 C-169.72995158 267.27674109 -167.72356585 271.43483769 -165 276 C-164.3862933 277.54310615 -163.81989695 279.10624707 -163.3125 280.6875 C-161.34690706 286.28905143 -159.03007834 291.70147098 -156.625 297.125 C-156.08033081 298.3773645 -156.08033081 298.3773645 -155.5246582 299.6550293 C-152.06435352 307.37510673 -147.45557595 314.04893705 -142.5 320.875 C-139.99957123 324.40534107 -137.88106883 327.98039416 -135.875 331.8125 C-133.70071987 335.92975386 -131.4458421 338.82619807 -128 342 C-127.278125 343.093125 -126.55625 344.18625 -125.8125 345.3125 C-125.214375 346.199375 -124.61625 347.08625 -124 348 C-123.34 348 -122.68 348 -122 348 C-121.76539063 348.71800781 -121.53078125 349.43601562 -121.2890625 350.17578125 C-119.77408097 353.49496807 -117.89122175 355.55053077 -115.375 358.1875 C-112.17259483 361.59621617 -109.10829652 365.04411339 -106.25 368.75 C-102.14601749 373.98236874 -97.62695458 378.77927956 -93.06347656 383.60791016 C-90.12414802 386.7186074 -87.23955039 389.83475119 -84.5 393.125 C-79.21961342 399.26529687 -72.99558729 404.57533417 -67 410 C-66.20722656 410.71929688 -65.41445313 411.43859375 -64.59765625 412.1796875 C-60.83612094 415.53155065 -56.94309985 418.61431769 -52.875 421.5859375 C-51.12811528 422.90337973 -49.50791423 424.29568577 -47.875 425.75 C-44.93034267 428.05451443 -42.50887506 428.85757556 -39 430 C-38.67 430.99 -38.34 431.98 -38 433 C-35.63540616 434.79895734 -33.29576207 436.4454374 -30.8125 438.0625 C-29.8215332 438.73249023 -29.8215332 438.73249023 -28.81054688 439.41601562 C-24.98335398 441.94354973 -21.46831712 443.76999669 -17 445 C-17 445.66 -17 446.32 -17 447 C-14.70200355 448.83108183 -14.70200355 448.83108183 -11.8125 450.625 C-10.84957031 451.25664063 -9.88664063 451.88828125 -8.89453125 452.5390625 C-5.82489052 454.08838184 -4.36678192 454.5466961 -1 454 C1.43776207 452.76352716 1.43776207 452.76352716 3.6875 451.0625 C7.98406375 448.00796813 7.98406375 448.00796813 10 447 C10 446.34 10 445.68 10 445 C11.175625 444.5359375 11.175625 444.5359375 12.375 444.0625 C14.92330128 443.07124962 14.92330128 443.07124962 17 442 C17 441.34 17 440.68 17 440 C17.66 440 18.32 440 19 440 C19 439.34 19 438.68 19 438 C20.175625 437.5359375 20.175625 437.5359375 21.375 437.0625 C23.92330128 436.07124962 23.92330128 436.07124962 26 435 C26 434.34 26 433.68 26 433 C26.98226562 432.69449219 26.98226562 432.69449219 27.984375 432.3828125 C32.19940969 430.45001162 35.60501578 427.7164855 39.25 424.875 C40.38453613 424.00029053 40.38453613 424.00029053 41.54199219 423.10791016 C46.25026927 419.44962949 50.80694722 415.6868144 55.140625 411.5859375 C57 410 57 410 59.5859375 408.46484375 C62.2063023 406.87481657 63.73550894 405.00249807 65.61328125 402.609375 C67.6322413 400.26624391 69.99341652 398.40825372 72.37109375 396.44140625 C74.54309519 394.51941937 76.20622281 392.27211777 78 390 C78.763125 389.401875 79.52625 388.80375 80.3125 388.1875 C83.25842887 385.78965092 85.56325806 383.18150489 88.01953125 380.296875 C91.01818539 376.81914594 94.15532797 373.46854446 97.27734375 370.1015625 C99.21131402 368.19510178 99.21131402 368.19510178 99 366 C99.99 366 100.98 366 102 366 C103.82059296 363.91190111 103.82059296 363.91190111 105.5 361.25 C109 356 109 356 110.71875 353.796875 C112.19352275 352.09641106 112.19352275 352.09641106 112 350 C112.66 350 113.32 350 114 350 C115.83657986 347.55422781 117.55792398 345.10568181 119.25 342.5625 C119.74580566 341.82765381 120.24161133 341.09280762 120.75244141 340.33569336 C121.73468695 338.87810021 122.71408597 337.41858421 123.69042969 335.95703125 C124.74476548 334.38142429 125.81179141 332.81431297 126.8828125 331.25 C133.05183286 323.19255753 133.05183286 323.19255753 136 314 C136.99 313.67 137.98 313.34 139 313 C140.65156783 310.27228039 140.65156783 310.27228039 142.1875 306.875 C142.80381826 305.58619899 143.42238464 304.2984711 144.04296875 303.01171875 C144.36313965 302.34575684 144.68331055 301.67979492 145.01318359 300.99365234 C146.26755578 298.45946055 147.62418464 295.99037954 148.99243164 293.51635742 C155.88171059 281.01148982 161.07902132 268.36757987 164.078125 254.390625 C164.97611996 251.08782998 166.22606715 248.88802006 168 246 C168.63502125 243.55777553 168.63502125 243.55777553 168.9375 241 C169.62144514 236.71241111 170.64650638 232.75040859 172 228.625 C173.77742856 223.10180533 174.79515204 217.72484422 175.5078125 211.97265625 C176 209 176 209 176.97973633 206.26147461 C178.08306283 202.73447323 178.49061545 199.52270216 178.81640625 195.84375 C178.87779282 195.17839233 178.93917938 194.51303467 179.00242615 193.82751465 C179.19585504 191.71888777 179.37965782 189.60956881 179.5625 187.5 C179.75063834 185.39062862 179.94084437 183.2814685 180.13328552 181.17248535 C180.30705395 179.25922267 180.47510113 177.3454429 180.64282227 175.43164062 C181 172 181 172 181.51522827 169.30429077 C182.08513156 165.41972803 182.13218073 161.61489859 182.11352539 157.69970703 C182.11374443 156.48407326 182.11374443 156.48407326 182.1139679 155.24388123 C182.11327471 152.5818305 182.10551023 149.91985091 182.09765625 147.2578125 C182.09578996 145.40550779 182.09436705 143.55320259 182.09336853 141.70089722 C182.08955997 136.8380394 182.07974392 131.97521169 182.06866455 127.11236572 C182.05841466 122.14522712 182.05386325 117.17808364 182.04882812 112.2109375 C182.03812012 102.47394514 182.02106371 92.73697508 182 83 C180.82026611 82.78851318 180.82026611 82.78851318 179.61669922 82.57275391 C176.03529343 81.92806918 172.45515334 81.27660255 168.875 80.625 C167.6375 80.40328125 166.4 80.1815625 165.125 79.953125 C163.92617188 79.73398438 162.72734375 79.51484375 161.4921875 79.2890625 C160.39245605 79.09006348 159.29272461 78.89106445 158.15966797 78.68603516 C155.00646963 78.0014047 152.05380923 77.03213109 149 76 C147.906875 75.855625 146.81375 75.71125 145.6875 75.5625 C142.8442132 75.12877828 140.68591716 74.619509 138.0234375 73.68359375 C131.3542555 71.40931362 124.57039111 69.53409828 117.79492188 67.60546875 C112.74973259 66.1530173 107.79928678 64.62803206 102.90649414 62.72363281 C99.39946728 61.39249853 95.81719965 60.28254509 92.25 59.125 C85.00835288 56.74200149 77.99302731 54.04216442 71 51 C69.12587004 50.22705374 67.25084001 49.45628689 65.375 48.6875 C51.86581234 43.03372003 38.70035279 37.02408066 25.84228516 30.00341797 C24.2169063 29.11814006 22.58363493 28.24738604 20.94921875 27.37890625 C14.76256013 24.07517683 8.83657983 20.43636906 2.9453125 16.63671875 C-2.35721559 13.69008842 -4.97158168 13.51779798 -10.3125 16.4375 Z " fill="#9B9B9B" transform="translate(364,121)"/>
<path d="M0 0 C32.01 0 64.02 0 97 0 C97 9.9 97 19.8 97 30 C75.88 30 54.76 30 33 30 C33 39.9 33 49.8 33 60 C33.66 60 34.32 60 35 60 C35 60.66 35 61.32 35 62 C35.58676514 61.96970703 36.17353027 61.93941406 36.77807617 61.90820312 C47.78841538 61.3523953 58.78664523 60.89822251 69.8125 60.875 C70.70670654 60.87048828 71.60091309 60.86597656 72.5222168 60.86132812 C78.75188924 60.87594462 78.75188924 60.87594462 81 62 C81 71.57 81 81.14 81 91 C65.40459014 91.16590862 50.47454225 90.84770654 35 89 C34.67 99.89 34.34 110.78 34 122 C38.30804688 121.98839844 42.61609375 121.97679687 47.0546875 121.96484375 C50.48448152 121.95841517 53.91427383 121.95299152 57.34407043 121.94824982 C60.96751103 121.94296384 64.59092832 121.93589716 68.21435547 121.92456055 C71.70268104 121.91371462 75.19098398 121.90771953 78.6793251 121.90512276 C80.66137692 121.90236919 82.6434196 121.8945599 84.62545776 121.88670349 C85.82655182 121.88662796 87.02764587 121.88655243 88.26513672 121.88647461 C89.85731522 121.88314369 89.85731522 121.88314369 91.48165894 121.87974548 C94 122 94 122 96 123 C96 132.24 96 141.48 96 151 C80.13042116 151.80489158 64.41710437 152.06856474 48.53417969 151.703125 C45.10623952 151.62457008 41.67821543 151.5575147 38.25 151.4921875 C25.81487177 151.24092541 13.41170892 150.80897925 1 150 C-0.30220339 143.05207999 -0.1328412 136.12709881 -0.11352539 129.07836914 C-0.11324301 127.66848757 -0.11340225 126.25860585 -0.1139679 124.84872437 C-0.11425387 121.03726397 -0.10838949 117.22583527 -0.10139394 113.41438222 C-0.09512709 109.42521785 -0.09455397 105.43605269 -0.09336853 101.44688416 C-0.09026502 93.89996766 -0.08206488 86.35306572 -0.07201904 78.80615562 C-0.05873326 68.60296658 -0.05335007 58.39977354 -0.04751682 48.19657803 C-0.03812431 32.13104113 -0.01819884 16.06553493 0 0 Z " fill="#9B9B9B" transform="translate(248,276)"/>
<path d="M0 0 C0 14.85 0 29.7 0 45 C-4.62 45 -9.24 45 -14 45 C-14 49.95 -14 54.9 -14 60 C-17.96 60 -21.92 60 -26 60 C-26 64.29 -26 68.58 -26 73 C-29.63 73 -33.26 73 -37 73 C-37 77.95 -37 82.9 -37 88 C-41.29 88 -45.58 88 -50 88 C-50 92.62 -50 97.24 -50 102 C-52.97 102 -55.94 102 -59 102 C-59.33 108.27 -59.66 114.54 -60 121 C-39.87 121 -19.74 121 1 121 C1 130.24 1 139.48 1 149 C-32 149 -65 149 -99 149 C-99 101 -99 101 -98 100 C-94.3308423 99.85689713 -90.67284559 99.95778338 -87 100 C-87 95.38 -87 90.76 -87 86 C-83.04 86 -79.08 86 -75 86 C-75 81.71 -75 77.42 -75 73 C-70.71 73 -66.42 73 -62 73 C-62.020625 71.22625 -62.04125 69.4525 -62.0625 67.625 C-62.125 62.25 -62.125 62.25 -61 60 C-57.04 60 -53.08 60 -49 60 C-49 54.72 -49 49.44 -49 44 C-45.78548731 42.39274365 -42.56387464 42.94251815 -39 43 C-39 38.38 -39 33.76 -39 29 C-41.39088867 29.00785522 -41.39088867 29.00785522 -43.83007812 29.01586914 C-49.76399165 29.03401835 -55.69790273 29.04546824 -61.63183594 29.05493164 C-64.19629326 29.0599492 -66.76074775 29.06676472 -69.32519531 29.07543945 C-73.01888737 29.08761803 -76.71254147 29.0932542 -80.40625 29.09765625 C-81.5461438 29.10281754 -82.6860376 29.10797882 -83.86047363 29.11329651 C-84.94098999 29.11337204 -86.02150635 29.11344757 -87.13476562 29.11352539 C-88.07630493 29.115746 -89.01784424 29.11796661 -89.98791504 29.12025452 C-93.67461797 28.97306654 -97.33885192 28.45764351 -101 28 C-101 18.43 -101 8.86 -101 -1 C-67.16677097 -2.3951847 -33.79152614 -2.3105317 0 0 Z " fill="#9B9B9B" transform="translate(472,278)"/>
<path d="M0 0 C2.4375 0.125 2.4375 0.125 5 1 C6.4375 3.375 6.4375 3.375 7 6 C6.01 7.485 6.01 7.485 5 9 C0.125 8.125 0.125 8.125 -1 7 C-1.125 4 -1.125 4 -1 1 C-0.67 0.67 -0.34 0.34 0 0 Z " fill="#9B9B9B" transform="translate(500,504)"/>
<path d="M0 0 C2.97 0.495 2.97 0.495 6 1 C5.34 2.98 4.68 4.96 4 7 C2.68 6.67 1.36 6.34 0 6 C0 4.02 0 2.04 0 0 Z " fill="#9D9D9D" transform="translate(549,430)"/>
</svg>
